P2
83 116
255
  0   0   0   0   0   0   0   0   0   0   0   0   0   0   0   0   0   0   0   0   0   0   0   0   0   0   0   0   0   0   0   0   0   0   0   0   0   0   0   0   0   0   0   0   0   0   0   0   0   0   0   0   0   0 255 255 255 255 255 255 255 255 255 255 255 255 255 255 255 255 255 255 255 255 255 255 255 255 255 255 255 255 255 
  0   0   0   0   0   0   0   0   0   0   0   0   0   0   0   0   0   0   0   0   0   0   0   0   0   0   0   0   0   0   0   0   0   0   0   0   0   0   0   0   0   0   0   0   0   0   0   0   0   0   0   0   0   0 255 255 255 255 255 255 255 255 255 255 255 255 255 255 255 255 255 255 255 255 255 255 255 255 255 255 255 255 255 
  0   0   0   0   0   0   0   0   0   0   0   0   0   0   0   0   0   0   0   0   0   0   0   0   0   0   0   0   0   0   0   0   0   0   0   0   0   0   0   0   0   0   0   0   0   0   0   0   0   0   0   0   0   0 255 255 255 255 255 255 255 255 255 255 255 255 255 255 255 255 255 255 255 255 255 255 255 255 255 255 255 255 255 
  0   0   0   0   0   0   0   0   0   0   0   0   0   0   0   0   0   0   0   0   0   0   0   0   0   0   0   0   0   0   0   0   0   0   0   0   0   0   0   0   0   0   0   0   0   0   0   0   0   0   0   0   0   0 255 255 255 255 255 255 255 255 255 255 255 255 255 255 255 255 255 255 255 255 255 255 255 255 255 255 255 255 255 
  0   0   0   0   0   0   0   0   0   0   0   0   0   0   0   0   0   0   0   0   0   0   0   0   0   0   0   0   0   0   0   0   0   0   0   0   0   0   0   0   0   0   0   0   0   0   0   0   0   0   0   0   0   0 255 255 255 255 255 255 255 255 255 255 255 255 255 255 255 255 255 255 255 255 255 255 255 255 255 255 255 255 255 
  0   0   0   0   0   0   0   0   0   0   0   0   0   0   0   0   0   0   0   0   0   0   0   0   0   0   0   0   0   0   0   0   0   0   0   0   0   0   0   0   0   0   0   0   0   0   0   0   0   0   0   0   0   0 255 255 255 255 255 255 255 255 255 255 255 255 255 255 255 255 255 255 255 255 255 255 255 255 255 255 255 255 255 
  0   0   0   0   0   0   0   0   0   0   0   0   0   0   0   0   0   0   0   0   0   0   0   0   0   0   0   0   0   0   0   0   0   0   0   0   0   0   0   0   0   0   0   0   0   0   0   0   0   0   0   0   0   0 255 255 255 255 255 255 255 255 255 255 255 255 255 255 255 255 255 255 255 255 255 255 255 255 255 255 255 255 255 
  0   0   0   0   0   0   0   0   0   0   0   0   0   0   0   0   0   0   0   0   0   0   0   0   0   0   0   0   0   0   0   0   0   0   0   0   0   0   0   0   0   0   0   0   0   0   0   0   0   0   0   0   0   0   0   0   0   0   0   0   0   0   0   0   0   0   0   0   0   0 255 255 255 255 255 255 255 255 255 255 255 255 255 
  0   0   0   0   0   0   0   0   0   0   0   0   0   0   0   0   0   0   0   0   0   0   0   0   0   0   0   0   0   0   0   0   0   0   0   0   0   0   0   0   0   0   0   0   0   0   0   0   0   0   0   0   0   0   0   0   0   0   0   0   0   0   0   0   0   0   0   0   0   0 255 255 255 255 255 255 255 255 255 255 255 255 255 
  0   0   0   0   0   0   0   0   0   0   0   0   0   0   0   0   0   0   0   0   0   0   0   0   0   0   0   0   0  64  85 128 128 128 128 128 128 128 128 128 128 128 128 128 128 128 128 128 128  85   0   0   0   0   0   0   0   0   0   0   0   0   0   0   0   0   0   0   0   0 255 255 255 255 255 255 255 255 255 255 255 255 255 
  0   0   0   0   0   0   0   0   0   0   0   0   0   0   0   0   0   0   0   0   0   0   0   0   0   0   0   0   0  64  85 128 128 128 128 128 128 128 128 128 128 128 128 128 128 128 128 128 128  85   0   0   0   0   0   0   0   0   0   0   0   0   0   0   0   0   0   0   0   0 255 255 255 255 255 255 255 255 255 255 255 255 255 
  0   0   0   0   0   0   0   0   0   0   0   0   0   0   0   0   0   0   0   0   0   0   0   0   0   0   0   0   0  64  85 128 128 128 128 128 128 128 128 128 128 128 128 128 128 128 128 128 128  85   0   0   0   0   0   0   0   0   0   0   0   0   0   0   0   0   0   0   0   0 255 255 255 255 255 255 255 255 255 255 255 255 255 
  0   0   0   0   0   0   0   0   0   0   0   0   0   0   0   0   0   0   0   0   0   0   0   0   0   0   0   0   0  64  85 128 128 128 128 128 128 128 128 128 128 128 128 128 128 128 128 128 128  85   0   0   0   0   0   0   0   0   0   0   0   0   0   0   0   0   0   0   0   0 255 255 255 255 255 255 255 255 255 255 255 255 255 
  0   0   0   0   0   0   0   0   0   0   0   0   0   0   0   0   0   0   0   0   0   0   0   0   0   0   0   0   0  64  85 128 128 128 128 128 128 128 128 128 128 128 128 128 128 128 128 128 128  85   0   0   0   0   0   0   0   0   0   0   0   0   0   0   0   0   0   0   0   0 255 255 255 255 255 255 255 255 255 255 255 255 255 
255 255 255 255   0   0   0   0   0   0   0   0   0   0   0   0   0   0   0   0   0   0   0   0   0   0   0   0   0  85 128 128 128 128 128 128 128 128 128 128 128 128 128 128 128 128 128 128 128  85   0   0   0   0   0   0   0   0   0   0   0   0   0   0   0   0   0   0   0   0 255 255 255 255 255 255 255 255 255 255 255 255 255 
255 255 255 255   0   0   0   0   0   0   0   0   0   0   0   0   0   0   0   0   0   0   0   0   0   0   0   0   0  85 128 128 128 128 128 128 128 128 128 128 128 128 128 128 128 170 170 170 170 128  85  85  85  85 128 128 128 128 128 128 128 128 128   0   0   0   0   0   0   0 255 255 255 255 255 255 255 255 255 255 255 255 255 
255 255 255 255   0   0   0   0   0   0   0   0   0   0   0   0   0   0   0   0   0   0   0   0   0   0   0   0  85 128 255 255 255 255 255 255 255 255 255 255 255 255 255 255 255 255 255 255 255 170 128 128 128 128 128 128 128 128 128 128 128 128 128   0   0   0   0   0   0   0 255 255 255 255 255 255 255 255 255 255 255 255 255 
255 255 255 255   0   0   0   0   0   0   0   0   0   0   0   0   0   0   0   0   0   0   0   0   0   0   0   0  85 128 255 255 255 255 255 255 255 255 255 255 255 255 255 255 255 255 255 255 255 170 128 128 128 128 128 128 128 128 128 128 128 128 128   0   0   0   0   0   0   0 255 255 255 255 255 255 255 255 255 255 255 255 255 
255 255 255 255   0   0   0   0   0   0   0   0   0   0   0   0   0   0   0   0   0   0   0   0   0   0   0   0  85 128 255 255 255 255 255 255 255 255 255 255 255 255 255 255 255 255 255 255 255 170 128 128 128 128 128 128 128 128 128 128 128 128 128   0   0   0   0   0   0   0 255 255 255 255 255 255 255 255 255 255 255 255 255 
255 255 255 255   0   0   0   0   0   0   0   0   0   0   0   0   0   0   0   0   0   0   0   0   0   0   0   0  85 128 255 255 255 255 255 255 255 255 255 255 255 255 255 255 255 255 255 255 255 170 128 128 128 128 128 128 128 128 128 128 128 128 128   0   0   0   0   0   0   0 255 255 255 255 255 255 255 255 255 255 255 255 255 
255 255 255 255   0   0   0   0   0   0   0   0   0   0   0   0   0   0   0   0   0   0   0   0   0   0   0   0  85 128 255 255 255 255 255 255 255 255 255 255 255 255 255 255 255 255 255 255 255 170 128 128 128 128 128 128 128 128 128 128 128 128 128   0   0   0   0   0   0   0 255 255 255 255 255 255 255 255 255 255 255 255 255 
255 255 255 255 255 255 255 255   0   0   0   0   0   0   0   0   0   0   0   0   0   0   0   0   0   0   0   0 128 170 255 255 255 255 255 255 255 255 255 255 255 255 255 255 255 255 255 255 255 170 128 128 128 128 128 128 128 128 128 128 128 128  85   0   0   0   0   0   0   0   0   0   0   0   0   0   0   0   0   0 255 255 255 
255 255 255 255 255 255 255 255   0   0   0   0   0   0   0   0   0   0   0   0   0   0   0   0   0   0   0   0 128 170 255 255 255 255 255 255 255 255 255 255 255 255 255 255 255 255 255 255 255 191 170 170 170 170 170 170 170 128 128 128 128 128  85   0   0   0   0   0   0   0   0   0   0   0   0   0   0   0   0   0 255 255 255 
255 255 255 255 255 255 255 255   0   0   0   0   0   0   0   0   0   0   0   0   0   0   0   0   0   0   0  85 128 170 255 255 255 255 255 255 255 255 255 255 255 255 255 255 255 255 255 255 255 170 170 170 170 170 170 170 170 128 128 128 128 128  85   0   0   0   0   0   0   0   0   0   0   0   0   0   0   0   0   0 255 255 255 
255 255 255 255 255 255 255 255   0   0   0   0   0   0   0   0   0   0   0   0   0   0   0   0   0   0   0  85 128 170 255 255 255 255 255 255 255 255 255 255 255 255 255 255 255 255 255 255 255 170 170 170 170 170 170 170 170 128 128 128 128 128  85   0   0   0   0   0   0   0   0   0   0   0   0   0   0   0   0   0 255 255 255 
255 255 255 255 255 255 255 255   0   0   0   0   0   0   0   0   0   0   0   0   0   0   0   0   0   0   0  85 128 170 255 255 255 255 255 255 255 255 255 255 255 255 255 255 255 255 255 255 255 170 170 170 170 170 170 170 170 128 128 128 128 128  85   0   0   0   0   0   0   0   0   0   0   0   0   0   0   0   0   0 255 255 255 
255 255 255 255 255 255 255 255   0   0   0   0   0   0   0   0   0   0   0   0   0   0   0   0   0   0   0  85 128 170 255 255 255 255 255 255 255 255 255 255 255 255 255 255 255 255 255 255 255 170 170 170 170 170 170 170 170 128 128 128 128 128  85   0   0   0   0   0   0   0   0   0   0   0   0   0   0   0   0   0 255 255 255 
255 255 255 255 255 255 255 255 255 255 255   0   0   0   0   0   0   0   0   0   0   0   0   0   0   0   0 128 170 255 255 255 255 255 255 255 255 255 255 255 255 255 255 255 255 255 255 255 255 191 191 191 170 170 170 170 191 170 170 170 170 170 128  85  85  85  85  85  85  85 128   0   0   0   0   0   0   0   0   0 255 255 255 
255 255 255 255 255 255 255 255 255 255 255   0   0   0   0   0   0   0   0   0   0   0   0   0   0   0   0  64  85 128 128 128 128 128 128 128 128 128 128 170 255 255 255 255 255 255 255 255 255 255 255 255 255 255 255 255 255 255 255 255 255 255 170 128 128 128 128 128 128 128 128   0   0   0   0   0   0   0   0   0 255 255 255 
255 255 255 255 255 255 255 255 255 255 255   0   0   0   0   0   0   0   0   0   0   0   0   0   0   0   0  64  85 128 128 128 128 128 128 128 128 128 128 170 255 255 255 255 255 255 255 255 255 255 255 255 255 255 255 255 255 255 255 255 255 255 170 128 128 128 128 128 128 128 128   0   0   0   0   0   0   0   0   0 255 255 255 
255 255 255 255 255 255 255 255 255 255 255   0   0   0   0   0   0   0   0   0   0   0   0   0   0   0   0  64  85 128 128 128 128 128 128 128 128 128 128 170 255 255 255 255 255 255 255 255 255 255 255 255 255 255 255 255 255 255 255 255 255 255 170 128 128 128 128 128 128 128 128   0   0   0   0   0   0   0   0   0 255 255 255 
255 255 255 255 255 255 255 255 255 255 255 255 255   0   0   0   0   0   0   0   0   0   0   0   0   0   0  85 128 128 128 128 128 128 128 128 128 128 128 170 255 255 255 255 255 255 255 255 255 255 255 255 255 255 255 255 255 255 255 255 255 255 191 170 128 128 128 128 128 128 128   0   0   0   0   0   0   0   0   0 255 255 255 
255 255 255 255 255 255 255 255 255 255 255 255 255   0   0   0   0   0   0   0   0   0   0   0   0   0   0  85 128 128 128 128 128 128 128 128  85  85  85 128 170 170 191 170 170 170 170 170 255 255 255 255 255 255 255 255 255 255 255 255 255 255 170 170 128 128 128 128 128 128 128   0   0   0   0   0   0   0   0   0 255 255 255 
255 255 255 255 255 255 255 255 255 255 255 255 255   0   0   0   0   0   0   0   0   0   0   0   0   0   0   0   0   0   0   0   0   0   0   0   0   0   0  85 128 128 170 170 170 170 170 170 255 255 255 255 255 255 255 255 255 255 255 255 255 255 170 170 128 128 128 128 128 128 128   0   0   0   0   0   0   0   0   0 255 255 255 
255 255 255 255 255 255 255 255 255 255 255 255 255   0   0   0   0   0   0   0   0   0   0   0   0   0   0   0   0   0   0   0   0   0   0   0   0   0   0  85 128 128 170 170 170 170 170 170 255 255 255 255 255 255 255 255 255 255 255 255 255 255 170 170 128 128 128 128 128 128 128   0   0   0   0   0   0   0   0   0 255 255 255 
255 255 255 255 255 255 255 255 255 255 255 255 255   0   0   0   0   0   0   0   0   0   0   0   0   0   0   0   0   0   0   0   0   0   0   0   0   0   0  85 128 128 170 170 170 170 170 191 255 255 255 255 255 255 255 255 255 255 255 255 255 255 170 170 128 128 128 128 128 128 128   0   0   0   0   0   0   0   0   0 255 255 255 
255 255 255 255 255 255 255 255 255 255 255 255 255 255 255   0   0   0   0   0   0   0   0   0   0   0   0   0   0   0   0   0   0   0   0   0   0   0   0  64  85  85  85  85 128 128 128 170 255 255 255 255 255 255 255 255 255 255 255 255 255 255 170 170 128 128 128 128 128 128 128   0   0   0   0   0   0   0   0   0 255 255 255 
255 255 255 255 255 255 255 255 255 255 255 255 255 255 255   0   0   0   0   0   0   0   0   0   0   0  85  64 128 128 128 128 128 128  85   0   0   0   0  85  85  85  85  85 128 128 128 170 255 255 255 255 255 255 255 255 255 255 255 255 255 255 170 170 128 128 128 128 128 128 128   0   0   0   0   0   0   0   0   0 255 255 255 
255 255 255 255 255 255 255 255 255 255 255 255 255 255 255   0   0   0   0   0   0   0   0   0   0   0  85  64 128 128 128 128 128 128  85   0   0   0   0  85  85  85  85  85 128 128 128 170 255 255 255 255 255 255 255 255 255 255 255 255 255 255 170 170 128 128 128 128 128 128  85   0   0   0   0   0   0   0   0   0   0   0   0 
255 255 255 255 255 255 255 255 255 255 255 255 255 255 255   0   0   0   0   0   0   0   0   0   0   0  85  64 128 128 128 128 128 128  85   0   0   0   0  85  85  85  85  64  85  85  85 128 170 170 170 191 170 255 255 255 255 255 255 255 255 255 170 170 128 128 128 128 128 128  85   0   0   0   0   0   0   0   0   0   0   0   0 
255 255 255 255 255 255 255 255 255 255 255 255 255 255 255 255 255   0   0   0   0   0   0   0   0   0 128  85 128 128 128 128 170 170 128  85  64  85  85  85  85   0   0   0   0   0   0  85 128 128 128 170 170 255 255 255 255 255 255 255 255 255 170 170 128 128 128 128 128 128  85   0   0   0   0   0   0   0   0   0   0   0   0 
255 255 255 255 255 255 255 255 255 255 255 255 255 255 255 255 255   0   0   0   0   0   0   0   0   0 128 170 255 255 255 255 255 255 170 128  85  85  85  85  85   0   0   0   0   0   0  85 128 128 128 170 170 255 255 255 255 255 255 255 255 255 170 128  85  85  85  85  85  85  64   0   0   0   0   0   0   0   0   0   0   0   0 
255 255 255 255 255 255 255 255 255 255 255 255 255 255 255 255 255   0   0   0   0   0   0   0   0   0 128 170 255 255 255 255 255 255 170 128  85  85  85  85  64   0   0   0   0   0   0  64 128 128 128 170 170 255 255 255 255 255 255 255 255 255 255 170 128 128 128 128 128 128  85   0   0   0   0   0   0   0   0   0   0   0   0 
255 255 255 255 255 255 255 255 255 255 255 255 255 255 255 255 255 255   0   0   0   0   0   0   0   0 170 255 255 255 255 255 255 255 191 170 170 170 128 128  85   0   0   0   0   0   0  85 128 128 128 170 170 255 255 255 255 255 255 255 255 255 255 170 128 128 128 128 128 128  85   0   0   0   0   0   0   0   0   0   0   0   0 
255 255 255 255 255 255 255 255 255 255 255 255 255 255 255 255 255 255   0   0   0   0   0   0   0   0 128 255 255 255 255 255 255 255 170 170 170 191 170 170 128  85  85  64   0   0   0  85 128 128 128 170 170 255 255 255 255 191 170 170 170 170 170 128  85  85 128 128 128 128  85   0   0   0   0   0   0   0   0   0   0   0   0 
255 255 255 255 255 255 255 255 255 255 255 255 255 255 255 255 255 255   0   0   0   0   0   0   0   0 128 255 255 255 255 255 255 255 255 255 255 255 255 255 170 128 128  85   0   0   0  85 128 128 128 170 170 255 255 255 255 170 128 128 128 128 128  85   0   0   0   0   0   0   0   0   0   0   0   0   0   0   0   0   0   0   0 
255 255 255 255 255 255 255 255 255 255 255 255 255 255 255 255 255 255 255 255   0   0   0   0   0   0 170 255 255 255 255 255 255 255 255 255 255 255 255 255 170 128 128  85   0   0   0  85 128 128 128 170 128 170 170 170 170 128  85  85 128 128 128  85   0   0   0   0   0   0   0   0   0   0   0   0   0   0   0   0   0   0   0 
255 255 255 255 255 255 255 255 255 255 255 255 255 255 255 255 255 255 255 255   0   0   0   0   0   0  64 128 128 170 255 255 255 255 255 255 255 255 255 255 191 128 128  85   0   0   0  85 128 128 128 128  85 128 128 128 128  85   0   0   0   0   0   0   0   0   0   0   0   0   0   0   0   0   0   0   0   0   0   0   0   0   0 
255 255 255 255 255 255 255 255 255 255 255 255 255 255 255 255 255 255 255 255 255   0   0   0   0   0  85 128  85 128 170 191 170 255 255 255 255 255 255 255 170 128 128  85   0   0   0  64  85  85  85  85  64  85 128 128 128  85   0   0   0   0   0   0   0   0   0   0   0   0   0   0   0   0   0   0   0   0   0   0   0   0   0 
255 255 255 255 255 255 255 255 255 255 255 255 255 255 255 255 255 255 255 255 255   0   0   0   0   0   0   0   0  85 128 170 191 255 255 255 255 255 255 255 170 128 128  64   0   0   0   0   0   0   0   0   0   0   0   0   0   0   0   0   0   0   0   0   0   0   0   0   0   0   0   0   0   0   0   0   0   0   0   0   0   0   0 
255 255 255 255 255 255 255 255 255 255 255 255 255 255 255 255 255 255 255 255 255   0   0   0   0   0   0   0   0  85 128 128 170 255 255 255 255 255 255 255 170 128 128  85   0   0   0   0   0   0   0   0   0   0   0   0   0   0   0   0   0   0   0   0   0   0   0   0   0   0   0   0   0   0   0   0   0   0   0   0   0   0   0 
255 255 255 255 255 255 255 255 255 255 255 255 255 255 255 255 255 255 255 255 255 255 255 255 255 255 255 255   0 128  85  85 128 170 191 255 255 255 255 255 128  85  85  64   0   0   0   0   0   0   0   0   0   0   0   0   0   0   0   0   0   0   0   0   0   0   0   0   0   0   0   0   0   0   0   0   0   0   0   0   0   0   0 
255 255 255 255 255 255 255 255 255 255 255 255 255 255 255 255 255 255 255 255 255 255 255 255 255 255 255 255   0   0   0   0  85 128 170 255 255 191 170 170 128  85 128  85   0   0   0   0   0   0   0   0   0   0   0   0   0   0   0   0   0   0   0   0   0   0   0   0   0   0   0   0   0   0   0   0   0   0   0   0   0   0   0 
255 255 255 255 255 255 255 255 255 255 255 255 255 255 255 255 255 255 255 255 255 255 255 255 255 255 255 255 255 255   0   0 128 128 128 170 170 128 128 128  85   0   0   0   0   0   0   0   0   0   0   0   0   0   0   0   0   0   0   0   0   0   0   0   0   0   0   0   0   0   0   0   0   0   0   0   0   0   0   0   0   0   0 
255 255 255 255 255 255 255 255 255 255 255 255 255 255 255 255 255 255 255 255 255 255 255 255 255 255 255 255 255 255   0   0  85  85  64  85 128  85   0   0   0   0   0   0   0   0   0   0   0   0   0   0   0   0   0   0   0   0   0   0   0   0   0   0   0   0   0   0   0   0   0   0   0   0   0   0   0   0   0   0   0   0   0 
255 255 255 255 255 255 255 255 255 255 255 255 255 255 255 255 255 255 255 255 255 255 255 255 255 255 255 255 255 255   0   0   0   0   0   0   0   0   0   0   0   0   0   0   0   0   0   0   0   0   0   0   0   0   0   0   0   0   0   0   0   0   0   0   0   0   0   0   0   0   0   0   0   0   0   0   0   0   0   0   0   0   0 
255 255 255 255 255 255 255 255 255 255 255 255 255 255 255 255 255 255 255 255 255 255 255 255 255 255 255 255 255 255 255   0   0   0   0   0   0   0   0   0   0   0   0   0   0   0   0   0   0   0   0   0   0   0   0   0   0   0   0   0   0   0   0   0   0   0   0   0   0   0   0   0   0   0   0   0   0   0   0   0   0   0   0 
255 255 255 255 255 255 255 255 255 255 255 255 255 255 255 255 255 255 255 255 255 255 255 255 255 255 255 255 255 255 255   0   0   0   0   0   0   0   0   0   0   0   0   0   0   0   0   0   0   0   0   0   0   0   0   0   0   0   0   0   0   0   0   0   0   0   0   0   0   0   0   0   0   0   0   0   0   0   0   0   0   0   0 
255 255 255 255 255 255 255 255 255 255 255 255 255 255 255 255 255 255 255 255 255 255 255 255 255 255 255 255 255 255 255   0   0   0   0   0   0   0   0   0   0   0   0   0   0   0   0   0   0   0   0   0   0   0   0   0   0   0   0   0   0   0   0   0   0   0   0   0   0   0   0   0   0   0   0   0   0   0   0   0   0   0   0 
255 255 255 255 255 255 255 255 255 255 255 255 255 255 255 255 255 255 255 255 255 255 255 255 255 255 255 255 255 255 255   0   0   0   0   0   0   0   0   0   0   0   0   0   0   0   0   0   0   0   0   0   0   0   0   0   0   0   0   0   0   0   0   0   0   0   0   0   0   0   0   0   0   0   0   0   0   0   0   0   0   0   0 
255 255 255 255 255 255 255 255 255 255 255 255 255 255 255 255 255 255 255 255 255 255 255 255 255 255 255 255 255 255   0   0   0   0   0   0   0   0   0   0   0   0   0   0   0   0   0   0   0   0   0   0   0   0   0   0   0   0   0   0   0   0   0   0   0   0   0   0   0   0   0   0   0   0   0   0   0   0   0   0   0   0   0 
255 255 255 255 255 255 255 255 255 255 255 255 255 255 255 255 255 255 255 255 255 255 255 255 255 255 255 255 255 255   0   0  85  85  64  85 128  85   0   0   0   0   0   0   0   0   0   0   0   0   0   0   0   0   0   0   0   0   0   0   0   0   0   0   0   0   0   0   0   0   0   0   0   0   0   0   0   0   0   0   0   0   0 
255 255 255 255 255 255 255 255 255 255 255 255 255 255 255 255 255 255 255 255 255 255 255 255 255 255 255 255 255 255   0   0 128 128 128 170 170 128 128 128  85   0   0   0   0   0   0   0   0   0   0   0   0   0   0   0   0   0   0   0   0   0   0   0   0   0   0   0   0   0   0   0   0   0   0   0   0   0   0   0   0   0   0 
255 255 255 255 255 255 255 255 255 255 255 255 255 255 255 255 255 255 255 255 255 255 255 255 255 255 255 255   0   0   0   0  85 128 170 255 255 191 170 170 128  85 128  85   0   0   0   0   0   0   0   0   0   0   0   0   0   0   0   0   0   0   0   0   0   0   0   0   0   0   0   0   0   0   0   0   0   0   0   0   0   0   0 
255 255 255 255 255 255 255 255 255 255 255 255 255 255 255 255 255 255 255 255 255 255 255 255 255 255 255 255   0 128  85  85 128 170 191 255 255 255 255 255 128  85  85  64   0   0   0   0   0   0   0   0   0   0   0   0   0   0   0   0   0   0   0   0   0   0   0   0   0   0   0   0   0   0   0   0   0   0   0   0   0   0   0 
255 255 255 255 255 255 255 255 255 255 255 255 255 255 255 255 255 255 255 255 255   0   0   0   0   0   0   0   0  85 128 128 170 255 255 255 255 255 255 255 170 128 128  85   0   0   0   0   0   0   0   0   0   0   0   0   0   0   0   0   0   0   0   0   0   0   0   0   0   0   0   0   0   0   0   0   0   0   0   0   0   0   0 
255 255 255 255 255 255 255 255 255 255 255 255 255 255 255 255 255 255 255 255 255   0   0   0   0   0   0   0   0  85 128 170 191 255 255 255 255 255 255 255 170 128 128  64   0   0   0   0   0   0   0   0   0   0   0   0   0   0   0   0   0   0   0   0   0   0   0   0   0   0   0   0   0   0   0   0   0   0   0   0   0   0   0 
255 255 255 255 255 255 255 255 255 255 255 255 255 255 255 255 255 255 255 255 255   0   0   0   0   0  85 128  85 128 170 191 170 255 255 255 255 255 255 255 170 128 128  85   0   0   0  64  85  85  85  85  64  85 128 128 128  85   0   0   0   0   0   0   0   0   0   0   0   0   0   0   0   0   0   0   0   0   0   0   0   0   0 
255 255 255 255 255 255 255 255 255 255 255 255 255 255 255 255 255 255 255 255   0   0   0   0   0   0  64 128 128 170 255 255 255 255 255 255 255 255 255 255 191 128 128  85   0   0   0  85 128 128 128 128  85 128 128 128 128  85   0   0   0   0   0   0   0   0   0   0   0   0   0   0   0   0   0   0   0   0   0   0   0   0   0 
255 255 255 255 255 255 255 255 255 255 255 255 255 255 255 255 255 255 255 255   0   0   0   0   0   0 170 255 255 255 255 255 255 255 255 255 255 255 255 255 170 128 128  85   0   0   0  85 128 128 128 170 128 170 170 170 170 128  85  85 128 128 128  85   0   0   0   0   0   0   0   0   0   0   0   0   0   0   0   0   0   0   0 
255 255 255 255 255 255 255 255 255 255 255 255 255 255 255 255 255 255   0   0   0   0   0   0   0   0 128 255 255 255 255 255 255 255 255 255 255 255 255 255 170 128 128  85   0   0   0  85 128 128 128 170 170 255 255 255 255 170 128 128 128 128 128  85   0   0   0   0   0   0   0   0   0   0   0   0   0   0   0   0   0   0   0 
255 255 255 255 255 255 255 255 255 255 255 255 255 255 255 255 255 255   0   0   0   0   0   0   0   0 128 255 255 255 255 255 255 255 170 170 170 191 170 170 128  85  85  64   0   0   0  85 128 128 128 170 170 255 255 255 255 191 170 170 170 170 170 128  85  85 128 128 128 128  85   0   0   0   0   0   0   0   0   0   0   0   0 
255 255 255 255 255 255 255 255 255 255 255 255 255 255 255 255 255 255   0   0   0   0   0   0   0   0 170 255 255 255 255 255 255 255 191 170 170 170 128 128  85   0   0   0   0   0   0  85 128 128 128 170 170 255 255 255 255 255 255 255 255 255 255 170 128 128 128 128 128 128  85   0   0   0   0   0   0   0   0   0   0   0   0 
255 255 255 255 255 255 255 255 255 255 255 255 255 255 255 255 255   0   0   0   0   0   0   0   0   0 128 170 255 255 255 255 255 255 170 128  85  85  85  85  64   0   0   0   0   0   0  64 128 128 128 170 170 255 255 255 255 255 255 255 255 255 255 170 128 128 128 128 128 128  85   0   0   0   0   0   0   0   0   0   0   0   0 
255 255 255 255 255 255 255 255 255 255 255 255 255 255 255 255 255   0   0   0   0   0   0   0   0   0 128 170 255 255 255 255 255 255 170 128  85  85  85  85  85   0   0   0   0   0   0  85 128 128 128 170 170 255 255 255 255 255 255 255 255 255 170 128  85  85  85  85  85  85  64   0   0   0   0   0   0   0   0   0   0   0   0 
255 255 255 255 255 255 255 255 255 255 255 255 255 255 255 255 255   0   0   0   0   0   0   0   0   0 128  85 128 128 128 128 170 170 128  85  64  85  85  85  85   0   0   0   0   0   0  85 128 128 128 170 170 255 255 255 255 255 255 255 255 255 170 170 128 128 128 128 128 128  85   0   0   0   0   0   0   0   0   0   0   0   0 
255 255 255 255 255 255 255 255 255 255 255 255 255 255 255   0   0   0   0   0   0   0   0   0   0   0  85  64 128 128 128 128 128 128  85   0   0   0   0  85  85  85  85  64  85  85  85 128 170 170 170 191 170 255 255 255 255 255 255 255 255 255 170 170 128 128 128 128 128 128  85   0   0   0   0   0   0   0   0   0   0   0   0 
255 255 255 255 255 255 255 255 255 255 255 255 255 255 255   0   0   0   0   0   0   0   0   0   0   0  85  64 128 128 128 128 128 128  85   0   0   0   0  85  85  85  85  85 128 128 128 170 255 255 255 255 255 255 255 255 255 255 255 255 255 255 170 170 128 128 128 128 128 128  85   0   0   0   0   0   0   0   0   0   0   0   0 
255 255 255 255 255 255 255 255 255 255 255 255 255 255 255   0   0   0   0   0   0   0   0   0   0   0  85  64 128 128 128 128 128 128  85   0   0   0   0  85  85  85  85  85 128 128 128 170 255 255 255 255 255 255 255 255 255 255 255 255 255 255 170 170 128 128 128 128 128 128 128   0   0   0   0   0   0   0   0   0 255 255 255 
255 255 255 255 255 255 255 255 255 255 255 255 255 255 255   0   0   0   0   0   0   0   0   0   0   0   0   0   0   0   0   0   0   0   0   0   0   0   0  64  85  85  85  85 128 128 128 170 255 255 255 255 255 255 255 255 255 255 255 255 255 255 170 170 128 128 128 128 128 128 128   0   0   0   0   0   0   0   0   0 255 255 255 
255 255 255 255 255 255 255 255 255 255 255 255 255   0   0   0   0   0   0   0   0   0   0   0   0   0   0   0   0   0   0   0   0   0   0   0   0   0   0  85 128 128 170 170 170 170 170 191 255 255 255 255 255 255 255 255 255 255 255 255 255 255 170 170 128 128 128 128 128 128 128   0   0   0   0   0   0   0   0   0 255 255 255 
255 255 255 255 255 255 255 255 255 255 255 255 255   0   0   0   0   0   0   0   0   0   0   0   0   0   0   0   0   0   0   0   0   0   0   0   0   0   0  85 128 128 170 170 170 170 170 170 255 255 255 255 255 255 255 255 255 255 255 255 255 255 170 170 128 128 128 128 128 128 128   0   0   0   0   0   0   0   0   0 255 255 255 
255 255 255 255 255 255 255 255 255 255 255 255 255   0   0   0   0   0   0   0   0   0   0   0   0   0   0   0   0   0   0   0   0   0   0   0   0   0   0  85 128 128 170 170 170 170 170 170 255 255 255 255 255 255 255 255 255 255 255 255 255 255 170 170 128 128 128 128 128 128 128   0   0   0   0   0   0   0   0   0 255 255 255 
255 255 255 255 255 255 255 255 255 255 255 255 255   0   0   0   0   0   0   0   0   0   0   0   0   0   0  85 128 128 128 128 128 128 128 128  85  85  85 128 170 170 191 170 170 170 170 170 255 255 255 255 255 255 255 255 255 255 255 255 255 255 170 170 128 128 128 128 128 128 128   0   0   0   0   0   0   0   0   0 255 255 255 
255 255 255 255 255 255 255 255 255 255 255 255 255   0   0   0   0   0   0   0   0   0   0   0   0   0   0  85 128 128 128 128 128 128 128 128 128 128 128 170 255 255 255 255 255 255 255 255 255 255 255 255 255 255 255 255 255 255 255 255 255 255 191 170 128 128 128 128 128 128 128   0   0   0   0   0   0   0   0   0 255 255 255 
255 255 255 255 255 255 255 255 255 255 255   0   0   0   0   0   0   0   0   0   0   0   0   0   0   0   0  64  85 128 128 128 128 128 128 128 128 128 128 170 255 255 255 255 255 255 255 255 255 255 255 255 255 255 255 255 255 255 255 255 255 255 170 128 128 128 128 128 128 128 128   0   0   0   0   0   0   0   0   0 255 255 255 
255 255 255 255 255 255 255 255 255 255 255   0   0   0   0   0   0   0   0   0   0   0   0   0   0   0   0  64  85 128 128 128 128 128 128 128 128 128 128 170 255 255 255 255 255 255 255 255 255 255 255 255 255 255 255 255 255 255 255 255 255 255 170 128 128 128 128 128 128 128 128   0   0   0   0   0   0   0   0   0 255 255 255 
255 255 255 255 255 255 255 255 255 255 255   0   0   0   0   0   0   0   0   0   0   0   0   0   0   0   0  64  85 128 128 128 128 128 128 128 128 128 128 170 255 255 255 255 255 255 255 255 255 255 255 255 255 255 255 255 255 255 255 255 255 255 170 128 128 128 128 128 128 128 128   0   0   0   0   0   0   0   0   0 255 255 255 
255 255 255 255 255 255 255 255 255 255 255   0   0   0   0   0   0   0   0   0   0   0   0   0   0   0   0 128 170 255 255 255 255 255 255 255 255 255 255 255 255 255 255 255 255 255 255 255 255 191 191 191 170 170 170 170 191 170 170 170 170 170 128  85  85  85  85  85  85  85 128   0   0   0   0   0   0   0   0   0 255 255 255 
255 255 255 255 255 255 255 255   0   0   0   0   0   0   0   0   0   0   0   0   0   0   0   0   0   0   0  85 128 170 255 255 255 255 255 255 255 255 255 255 255 255 255 255 255 255 255 255 255 170 170 170 170 170 170 170 170 128 128 128 128 128  85   0   0   0   0   0   0   0   0   0   0   0   0   0   0   0   0   0 255 255 255 
255 255 255 255 255 255 255 255   0   0   0   0   0   0   0   0   0   0   0   0   0   0   0   0   0   0   0  85 128 170 255 255 255 255 255 255 255 255 255 255 255 255 255 255 255 255 255 255 255 170 170 170 170 170 170 170 170 128 128 128 128 128  85   0   0   0   0   0   0   0   0   0   0   0   0   0   0   0   0   0 255 255 255 
255 255 255 255 255 255 255 255   0   0   0   0   0   0   0   0   0   0   0   0   0   0   0   0   0   0   0  85 128 170 255 255 255 255 255 255 255 255 255 255 255 255 255 255 255 255 255 255 255 170 170 170 170 170 170 170 170 128 128 128 128 128  85   0   0   0   0   0   0   0   0   0   0   0   0   0   0   0   0   0 255 255 255 
255 255 255 255 255 255 255 255   0   0   0   0   0   0   0   0   0   0   0   0   0   0   0   0   0   0   0  85 128 170 255 255 255 255 255 255 255 255 255 255 255 255 255 255 255 255 255 255 255 170 170 170 170 170 170 170 170 128 128 128 128 128  85   0   0   0   0   0   0   0   0   0   0   0   0   0   0   0   0   0 255 255 255 
255 255 255 255 255 255 255 255   0   0   0   0   0   0   0   0   0   0   0   0   0   0   0   0   0   0   0   0 128 170 255 255 255 255 255 255 255 255 255 255 255 255 255 255 255 255 255 255 255 191 170 170 170 170 170 170 170 128 128 128 128 128  85   0   0   0   0   0   0   0   0   0   0   0   0   0   0   0   0   0 255 255 255 
255 255 255 255 255 255 255 255   0   0   0   0   0   0   0   0   0   0   0   0   0   0   0   0   0   0   0   0 128 170 255 255 255 255 255 255 255 255 255 255 255 255 255 255 255 255 255 255 255 170 128 128 128 128 128 128 128 128 128 128 128 128  85   0   0   0   0   0   0   0   0   0   0   0   0   0   0   0   0   0 255 255 255 
255 255 255 255   0   0   0   0   0   0   0   0   0   0   0   0   0   0   0   0   0   0   0   0   0   0   0   0  85 128 255 255 255 255 255 255 255 255 255 255 255 255 255 255 255 255 255 255 255 170 128 128 128 128 128 128 128 128 128 128 128 128 128   0   0   0   0   0   0   0 255 255 255 255 255 255 255 255 255 255 255 255 255 
255 255 255 255   0   0   0   0   0   0   0   0   0   0   0   0   0   0   0   0   0   0   0   0   0   0   0   0  85 128 255 255 255 255 255 255 255 255 255 255 255 255 255 255 255 255 255 255 255 170 128 128 128 128 128 128 128 128 128 128 128 128 128   0   0   0   0   0   0   0 255 255 255 255 255 255 255 255 255 255 255 255 255 
255 255 255 255   0   0   0   0   0   0   0   0   0   0   0   0   0   0   0   0   0   0   0   0   0   0   0   0  85 128 255 255 255 255 255 255 255 255 255 255 255 255 255 255 255 255 255 255 255 170 128 128 128 128 128 128 128 128 128 128 128 128 128   0   0   0   0   0   0   0 255 255 255 255 255 255 255 255 255 255 255 255 255 
255 255 255 255   0   0   0   0   0   0   0   0   0   0   0   0   0   0   0   0   0   0   0   0   0   0   0   0  85 128 255 255 255 255 255 255 255 255 255 255 255 255 255 255 255 255 255 255 255 170 128 128 128 128 128 128 128 128 128 128 128 128 128   0   0   0   0   0   0   0 255 255 255 255 255 255 255 255 255 255 255 255 255 
255 255 255 255   0   0   0   0   0   0   0   0   0   0   0   0   0   0   0   0   0   0   0   0   0   0   0   0  85 128 255 255 255 255 255 255 255 255 255 255 255 255 255 255 255 255 255 255 255 170 128 128 128 128 128 128 128 128 128 128 128 128 128   0   0   0   0   0   0   0 255 255 255 255 255 255 255 255 255 255 255 255 255 
255 255 255 255   0   0   0   0   0   0   0   0   0   0   0   0   0   0   0   0   0   0   0   0   0   0   0   0   0  85 128 128 128 128 128 128 128 128 128 128 128 128 128 128 128 170 170 170 170 128  85  85  85  85 128 128 128 128 128 128 128 128 128   0   0   0   0   0   0   0 255 255 255 255 255 255 255 255 255 255 255 255 255 
255 255 255 255   0   0   0   0   0   0   0   0   0   0   0   0   0   0   0   0   0   0   0   0   0   0   0   0   0  85 128 128 128 128 128 128 128 128 128 128 128 128 128 128 128 128 128 128 128  85   0   0   0   0   0   0   0   0   0   0   0   0   0   0   0   0   0   0   0   0 255 255 255 255 255 255 255 255 255 255 255 255 255 
  0   0   0   0   0   0   0   0   0   0   0   0   0   0   0   0   0   0   0   0   0   0   0   0   0   0   0   0   0  64  85 128 128 128 128 128 128 128 128 128 128 128 128 128 128 128 128 128 128  85   0   0   0   0   0   0   0   0   0   0   0   0   0   0   0   0   0   0   0   0 255 255 255 255 255 255 255 255 255 255 255 255 255 
  0   0   0   0   0   0   0   0   0   0   0   0   0   0   0   0   0   0   0   0   0   0   0   0   0   0   0   0   0  64  85 128 128 128 128 128 128 128 128 128 128 128 128 128 128 128 128 128 128  85   0   0   0   0   0   0   0   0   0   0   0   0   0   0   0   0   0   0   0   0 255 255 255 255 255 255 255 255 255 255 255 255 255 
  0   0   0   0   0   0   0   0   0   0   0   0   0   0   0   0   0   0   0   0   0   0   0   0   0   0   0   0   0  64  85 128 128 128 128 128 128 128 128 128 128 128 128 128 128 128 128 128 128  85   0   0   0   0   0   0   0   0   0   0   0   0   0   0   0   0   0   0   0   0 255 255 255 255 255 255 255 255 255 255 255 255 255 
  0   0   0   0   0   0   0   0   0   0   0   0   0   0   0   0   0   0   0   0   0   0   0   0   0   0   0   0   0  64  85 128 128 128 128 128 128 128 128 128 128 128 128 128 128 128 128 128 128  85   0   0   0   0   0   0   0   0   0   0   0   0   0   0   0   0   0   0   0   0 255 255 255 255 255 255 255 255 255 255 255 255 255 
  0   0   0   0   0   0   0   0   0   0   0   0   0   0   0   0   0   0   0   0   0   0   0   0   0   0   0   0   0  64  85 128 128 128 128 128 128 128 128 128 128 128 128 128 128 128 128 128 128  85   0   0   0   0   0   0   0   0   0   0   0   0   0   0   0   0   0   0   0   0 255 255 255 255 255 255 255 255 255 255 255 255 255 
  0   0   0   0   0   0   0   0   0   0   0   0   0   0   0   0   0   0   0   0   0   0   0   0   0   0   0   0   0   0   0   0   0   0   0   0   0   0   0   0   0   0   0   0   0   0   0   0   0   0   0   0   0   0   0   0   0   0   0   0   0   0   0   0   0   0   0   0   0   0 255 255 255 255 255 255 255 255 255 255 255 255 255 
  0   0   0   0   0   0   0   0   0   0   0   0   0   0   0   0   0   0   0   0   0   0   0   0   0   0   0   0   0   0   0   0   0   0   0   0   0   0   0   0   0   0   0   0   0   0   0   0   0   0   0   0   0   0   0   0   0   0   0   0   0   0   0   0   0   0   0   0   0   0 255 255 255 255 255 255 255 255 255 255 255 255 255 
  0   0   0   0   0   0   0   0   0   0   0   0   0   0   0   0   0   0   0   0   0   0   0   0   0   0   0   0   0   0   0   0   0   0   0   0   0   0   0   0   0   0   0   0   0   0   0   0   0   0   0   0   0   0 255 255 255 255 255 255 255 255 255 255 255 255 255 255 255 255 255 255 255 255 255 255 255 255 255 255 255 255 255 
  0   0   0   0   0   0   0   0   0   0   0   0   0   0   0   0   0   0   0   0   0   0   0   0   0   0   0   0   0   0   0   0   0   0   0   0   0   0   0   0   0   0   0   0   0   0   0   0   0   0   0   0   0   0 255 255 255 255 255 255 255 255 255 255 255 255 255 255 255 255 255 255 255 255 255 255 255 255 255 255 255 255 255 
  0   0   0   0   0   0   0   0   0   0   0   0   0   0   0   0   0   0   0   0   0   0   0   0   0   0   0   0   0   0   0   0   0   0   0   0   0   0   0   0   0   0   0   0   0   0   0   0   0   0   0   0   0   0 255 255 255 255 255 255 255 255 255 255 255 255 255 255 255 255 255 255 255 255 255 255 255 255 255 255 255 255 255 
  0   0   0   0   0   0   0   0   0   0   0   0   0   0   0   0   0   0   0   0   0   0   0   0   0   0   0   0   0   0   0   0   0   0   0   0   0   0   0   0   0   0   0   0   0   0   0   0   0   0   0   0   0   0 255 255 255 255 255 255 255 255 255 255 255 255 255 255 255 255 255 255 255 255 255 255 255 255 255 255 255 255 255 
  0   0   0   0   0   0   0   0   0   0   0   0   0   0   0   0   0   0   0   0   0   0   0   0   0   0   0   0   0   0   0   0   0   0   0   0   0   0   0   0   0   0   0   0   0   0   0   0   0   0   0   0   0   0 255 255 255 255 255 255 255 255 255 255 255 255 255 255 255 255 255 255 255 255 255 255 255 255 255 255 255 255 255 
  0   0   0   0   0   0   0   0   0   0   0   0   0   0   0   0   0   0   0   0   0   0   0   0   0   0   0   0   0   0   0   0   0   0   0   0   0   0   0   0   0   0   0   0   0   0   0   0   0   0   0   0   0   0 255 255 255 255 255 255 255 255 255 255 255 255 255 255 255 255 255 255 255 255 255 255 255 255 255 255 255 255 255 
  0   0   0   0   0   0   0   0   0   0   0   0   0   0   0   0   0   0   0   0   0   0   0   0   0   0   0   0   0   0   0   0   0   0   0   0   0   0   0   0   0   0   0   0   0   0   0   0   0   0   0   0   0   0 255 255 255 255 255 255 255 255 255 255 255 255 255 255 255 255 255 255 255 255 255 255 255 255 255 255 255 255 255 

