P2
9 21
255
255 255 255 255 255 255 255 255 255 
255 255 255 255 255 255 255 255 255 
255 255 255 255 255 255 255 255 255 
255 255 255 255   0   0 128 128 128 
255 255 255 255   0   0   0  85 128 
 85 128 128 128   0   0   0   0  85 
128  85 128 128 128   0   0   0   0 
 64  85  64  85 128 128   0   0   0 
  0   0   0   0   0   0   0   0 255 
  0   0   0   0   0   0   0   0   0 
255   0   0  64 128  85  64   0   0 
  0 255   0   0 128 255 255 128   0 
  0   0 255   0   0 128 255 255 128 
  0   0   0 255   0   0  64 128  85 
 64   0   0   0 255   0   0   0   0 
  0   0   0   0   0   0  85  85  64 
128  85   0   0   0   0   0 128 128 
 64  85  64   0   0   0   0   0 128 
128  85 128  85   0   0   0   0   0 
128 128  85 128  85   0   0   0   0 
255 255 255 128 128 128   0   0   0 

